<svg xmlns="http://www.w3.org/2000/svg" xmlns:xlink="http://www.w3.org/1999/xlink" fill="none" version="1.1" width="660" height="344" viewBox="0 0 660 344"><defs><clipPath id="master_svg0_5_191"><rect x="0" y="0" width="660" height="344" rx="0"/></clipPath><clipPath id="master_svg1_5_198"><rect x="266" y="160" width="129" height="24" rx="0"/></clipPath></defs><g style="mix-blend-mode:passthrough" clip-path="url(#master_svg0_5_191)"><rect x="0" y="0" width="660" height="344" rx="0" fill="#FFFFFF" fill-opacity="1"/><g style="mix-blend-mode:passthrough"><path d="M224.01562,287.37695L224.01562,288.63672L227.29102,288.63672L227.29102,292.7734C227.29102,292.9551,227.27344,293.1719,227.27344,293.4062L223.04297,293.4062L223.04297,294.6484L227.19727,294.6484C227.05664,296.0898,226.80469,297.3145,226.42383,298.3574C225.84961,299.7227,224.82422,300.8242,223.36523,301.6504L224.06836,302.7695C225.65039,301.9375,226.78711,300.7715,227.4668,299.2539C228.01172,298.0352,228.35156,296.5,228.51562,294.6484L233.7188,294.6484L233.7188,302.623L235.0312,302.623L235.0312,294.6484L238.9746,294.6484L238.9746,293.4062L235.0312,293.4062L235.0312,288.63672L238.0371,288.63672L238.0371,287.37695L224.01562,287.37695ZM228.62109,288.63672L233.7188,288.63672L233.7188,293.4062L228.60352,293.4062C228.60352,293.207,228.62109,292.9902,228.62109,292.7734L228.62109,288.63672ZM242.0684,286.65625L241.1836,287.5C242.5547,288.49023,243.6328,289.42773,244.4238,290.29492L245.3086,289.41016C244.4238,288.50781,243.3457,287.59375,242.0684,286.65625ZM241.7461,291.06836L240.8613,291.91211C242.1562,292.8672,243.1465,293.7637,243.8672,294.6133L244.752,293.7285C243.9375,292.8496,242.9297,291.96484,241.7461,291.06836ZM243.832,295.9258C243.0586,298.0703,242.1387,300.1562,241.0605,302.207L242.26760000000002,302.752C243.2578,300.748,244.1543,298.627,244.9453,296.3594L243.832,295.9258ZM248.6543,289.87891L248.6543,296.1953L251.7363,296.1953L251.7363,300.9824C251.7363,301.4336,251.5195,301.668,251.1211,301.668C250.6875,301.668,250.2422,301.6328,249.7734,301.5801L250.043,302.752L251.5547,302.752C252.4922,302.752,252.9785,302.2656,252.9785,301.293L252.9785,296.1953L255.9668,296.1953L255.9668,289.87891L252.457,289.87891C252.6504,289.33984,252.8145,288.77734,252.9375,288.18555L256.916,288.18555L256.916,287.01367L246.1172,287.01367L246.1172,293.4238C246.0645,297.0625,245.4668,299.8867,244.3535,301.9199L245.3262,302.7871C246.6211,300.4434,247.3066,297.3145,247.377,293.4238L247.377,288.18555L251.7188,288.18555C251.5898,288.75977,251.4258,289.32227,251.2148,289.87891L248.6543,289.87891ZM254.8125,295.1523L249.8086,295.1523L249.8086,293.5352L254.8125,293.5352L254.8125,295.1523ZM249.8086,292.5625L249.8086,290.9043L254.8125,290.9043L254.8125,292.5625L249.8086,292.5625ZM249.1055,297.4727C248.7305,298.8438,248.11520000000002,300.0859,247.2715,301.2168L248.3145,301.8672C249.1406,300.6953,249.791,299.3125,250.25979999999998,297.7246L249.1055,297.4727ZM255.2285,297.3848L254.1445,297.7598C254.83010000000002,298.9492,255.4805,300.3027,256.0547,301.8496L257.1504,301.3633C256.6113,299.957,255.9668,298.627,255.2285,297.3848ZM261.1465,291.60742L261.1465,296.6816L265.541,296.6816C265.4297,296.9336,265.3242,297.2031,265.1953,297.4551C264.1875,299.1836,262.1016,300.6426,258.9668,301.7969L259.7988,302.8223C263.291,301.4688,265.541,299.7637,266.5137,297.6719C266.6543,297.3496,266.8008,297.0273,266.9238,296.6816L267.8613,296.6816L267.8613,300.625C267.8613,301.8848,268.418,302.5176,269.5371,302.5176L273.0645,302.5176C273.6973,302.5176,274.1426,302.3535,274.4297,302.0312C274.7578,301.6504,274.9746,300.5898,275.09770000000003,298.8613L273.8555,298.4629C273.8027,299.8164,273.6973,300.625,273.5156,300.9121C273.3691,301.1289,273.15229999999997,301.2578,272.8301,301.2578L269.9297,301.2578C269.4082,301.2578,269.1562,300.9473,269.1562,300.3555L269.1562,296.6816L273.2637,296.6816L273.2637,291.22656L268.8516,291.22656C269.58979999999997,290.58203,270.3281,289.78516,271.084,288.85352L271.084,287.86328L264.873,287.86328C265.1953,287.42969,265.5059,286.97852,265.793,286.50977L264.498,286.20508C263.0391,288.4375,261.1816,290.21875,258.9141,291.58984L259.7461,292.5801C260.209,292.2695,260.6777,291.94727,261.1465,291.60742ZM267.1934,291.22656L261.6328,291.22656C262.459,290.56445,263.21479999999997,289.84375,263.918,289.05273L269.3906,289.05273C268.6699,289.87891,267.9492,290.59961,267.1934,291.22656ZM272.0215,295.457L267.2871,295.457C267.5039,294.543,267.6094,293.5352,267.6445,292.4336L272.0215,292.4336L272.0215,295.457ZM265.9336,295.457L262.4062,295.457L262.4062,292.4336L266.3496,292.4336C266.3145,293.5352,266.168,294.543,265.9336,295.457ZM279.8145,290.43555L282.3867,290.43555C282.3691,290.83398,282.2988,291.20898,282.1875,291.57227L279.52729999999997,291.57227L279.8145,290.43555ZM283.6465,290.43555L286.27729999999997,290.43555L286.27729999999997,291.57227L283.4883,291.57227C283.5586,291.20898,283.6113,290.83398,283.6465,290.43555ZM287.5371,290.43555L291.5156,290.43555L291.5156,287.19531L287.5371,287.19531L287.5371,286.25781L286.27729999999997,286.25781L286.27729999999997,287.19531L283.6465,287.19531L283.6465,286.25781L282.3867,286.25781L282.3867,287.19531L278.28520000000003,287.19531L278.28520000000003,288.25586L282.3867,288.25586L282.3867,289.41016L278.7539,289.41016L278.1211,292.5625L281.666,292.5625C281.5605,292.7031,281.4316,292.8496,281.3086,292.9902C280.6055,293.6406,279.3457,294.1621,277.5117,294.5605L278.1562,295.5859C278.625,295.4746,279.0938,295.3516,279.5449,295.2051L279.5449,299.9922L280.8223,299.9922L280.8223,296.248L289.6406,296.248L289.6406,299.9922L290.918,299.9922L290.918,295.0996L279.8672,295.0996C280.91020000000003,294.7363,281.7012,294.291,282.2812,293.7461C282.6035,293.4062,282.8906,293.0078,283.125,292.5625L286.27729999999997,292.5625L286.27729999999997,294.6133L287.5371,294.6133L287.5371,292.5625L291.15229999999997,292.5625C291.1348,293.0254,291.082,293.3359,290.9766,293.4941C290.8301,293.6758,290.4902,293.7637,289.9277,293.7637C289.6406,293.7637,289.3359,293.7461,289.0137,293.7285L289.2656,294.6484C289.5176,294.6484,289.8047,294.666,290.09180000000003,294.666C291.0645,294.666,291.6973,294.4668,291.96680000000003,294.0742C292.2363,293.7285,292.377,292.9023,292.377,291.57227L287.5371,291.57227L287.5371,290.43555ZM283.6465,288.25586L286.27729999999997,288.25586L286.27729999999997,289.41016L283.6465,289.41016L283.6465,288.25586ZM287.5371,288.25586L290.291,288.25586L290.291,289.41016L287.5371,289.41016L287.5371,288.25586ZM286.2012,299.7402L285.5566,300.7129C287.7188,301.2344,289.8223,301.9551,291.873,302.8926L292.5762,301.8145C290.6484,300.9824,288.52729999999997,300.3027,286.2012,299.7402ZM284.5312,296.8809C284.3848,298.5215,283.916,299.6875,283.1074,300.3906C282.1875,301.1113,280.3008,301.5273,277.4355,301.668L277.957,302.8223C281.1973,302.5879,283.2715,302.0312,284.2031,301.1465C285.0527,300.4258,285.5918,299.0605,285.8262,297.0039L284.5312,296.8809ZM301.2715,289.41016L298.3711,289.41016C298.7344,288.50781,299.0039,287.51758,299.21479999999997,286.45703L297.9199,286.27539C297.7617,287.35938,297.5098,288.40234,297.1465,289.41016L295.47069999999997,289.41016L295.47069999999997,302.207L296.7305,302.207L296.7305,300.6602L300.0117,300.6602L300.0117,301.6855L301.2715,301.6855L301.2715,289.41016ZM296.7305,299.4531L296.7305,295.5098L300.0117,295.5098L300.0117,299.4531L296.7305,299.4531ZM296.7305,294.3438L296.7305,290.63477L300.0117,290.63477L300.0117,294.3438L296.7305,294.3438ZM304.4004,293.5879L303.3574,294.2324C304.5996,295.709,305.58979999999997,297.0449,306.3281,298.2285L307.3535,297.5078C306.668,296.3945,305.6953,295.082,304.4004,293.5879ZM310.5762,289.42773L304.834,289.42773C305.1562,288.49023,305.40819999999997,287.48242,305.625,286.42188L304.34770000000003,286.25781C303.8789,288.81836,303.03520000000003,290.97461,301.7754,292.7383L302.5488,293.7637C303.252,292.8496,303.8438,291.82422,304.34770000000003,290.6875L309.2988,290.6875C309.2637,295.873,309.1875,298.9844,309.082,299.9922C308.9355,300.9121,308.4551,301.3809,307.6055,301.3809C307.0488,301.3809,306.3984,301.3633,305.6426,301.3281L305.9473,302.5176C306.8145,302.5527,307.4238,302.5879,307.7871,302.5879C309.2988,302.5879,310.125,301.8848,310.3066,300.5195C310.4883,299.1133,310.5762,295.4043,310.5762,289.42773ZM321.2344,286.1875L319.8105,286.43945C320.02729999999997,286.85547,320.2441,287.30664,320.4199,287.81055L313.043,287.81055L313.043,288.99414L328.93899999999996,288.99414L328.93899999999996,287.81055L321.8086,287.81055C321.627,287.21289,321.4277,286.67383,321.2344,286.1875ZM326.057,302.752C327.369,302.752,328.03700000000003,302.1719,328.03700000000003,301.041L328.03700000000003,294.7363L313.957,294.7363L313.957,302.8047L315.1992,302.8047L315.1992,295.873L326.795,295.873L326.795,300.7715C326.795,301.3457,326.414,301.6328,325.676,301.6328L324.24,301.5801L324.545,302.752L326.057,302.752ZM315.97270000000003,290.16602L315.97270000000003,293.6582L326.039,293.6582L326.039,290.16602L315.97270000000003,290.16602ZM324.779,292.6504L317.2383,292.6504L317.2383,291.17383L324.779,291.17383L324.779,292.6504ZM317.46680000000003,297.0273L317.46680000000003,300.625L324.545,300.625L324.545,297.0273L317.46680000000003,297.0273ZM323.391,299.6523L318.6387,299.6523L318.6387,297.9941L323.391,297.9941L323.391,299.6523ZM331.33,289.76758C331.277,291.49609,331.06100000000004,293.1367,330.68,294.6836L331.746,294.9883C332.104,293.3711,332.32,291.64258,332.355,289.84375L331.33,289.76758ZM335.848,289.39258L334.89300000000003,289.69727C335.30899999999997,290.70508,335.648,291.76562,335.918,292.8672L336.82,292.6328C336.656,292.9902,336.48,293.3711,336.281,293.7637L337.236,294.6309C337.863,293.5117,338.35,292.293,338.672,290.97461L341.484,290.97461L341.484,295.334L337.359,295.334L337.359,296.6113L341.484,296.6113L341.484,301L336.334,301L336.334,302.2656L347.209,302.2656L347.209,301L342.81399999999996,301L342.81399999999996,296.6113L346.471,296.6113L346.471,295.334L342.81399999999996,295.334L342.81399999999996,290.97461L346.74,290.97461L346.74,289.73242L342.81399999999996,289.73242L342.81399999999996,286.36914L341.484,286.36914L341.484,289.73242L338.906,289.73242C339.01800000000003,289.05273,339.08799999999997,288.33203,339.123,287.57617L337.951,287.41211C337.863,289.19336,337.506,290.86914,336.891,292.4336C336.586,291.2793,336.246,290.27148,335.848,289.39258ZM333.275,286.35156L333.275,302.7285L334.58799999999997,302.7285L334.58799999999997,286.35156L333.275,286.35156ZM351.217,296.6289L355.377,296.6289L355.377,298.3047L351.217,298.3047L351.217,296.6289ZM355.377,295.5508L351.217,295.5508L351.217,293.8047L355.377,293.8047L355.377,295.5508ZM351.217,299.4004L355.377,299.4004L355.377,300.8594C355.377,301.3105,355.14300000000003,301.5449,354.69100000000003,301.5449L353.344,301.4863L353.666,302.7109L355.10699999999997,302.7109C356.115,302.7109,356.619,302.1719,356.619,301.1289L356.619,292.668L349.975,292.668L349.975,302.8398L351.217,302.8398L351.217,299.4004ZM362.93600000000004,294.1621C363.568,294.1621,364.03700000000003,294.0156,364.324,293.7461C364.64599999999996,293.4238,364.881,292.5215,365.01,291.05078L363.803,290.66992C363.73199999999997,291.7832,363.621,292.4512,363.445,292.7031C363.299,292.8848,363.047,292.9902,362.68399999999997,292.9902L360.328,292.9902C359.842,292.9902,359.60699999999997,292.7031,359.60699999999997,292.1289L359.60699999999997,289.87891C361.58799999999997,289.5918,363.334,289.24609,364.846,288.87109L364.43,287.73438C363.188,288.0625,361.58799999999997,288.38477,359.60699999999997,288.68945L359.60699999999997,286.35156L358.33000000000004,286.35156L358.33000000000004,292.3984C358.33000000000004,293.5703,358.869,294.1621,359.971,294.1621L362.93600000000004,294.1621ZM359.60699999999997,298.2285C361.48199999999997,298.0703,363.22900000000004,297.7598,364.846,297.2969L364.43,296.1426C363.012,296.5762,361.406,296.8809,359.60699999999997,297.0625L359.60699999999997,294.8477L358.33000000000004,294.8477L358.33000000000004,301.0938C358.33000000000004,302.0488,358.852,302.5352,359.93,302.5352L362.994,302.5352C363.639,302.5352,364.10699999999997,302.3887,364.395,302.1191C364.74,301.7969,364.975,300.9121,365.08000000000004,299.4531L363.908,299.0957C363.83799999999997,300.1914,363.71500000000003,300.8594,363.51599999999996,301.1113C363.369,301.2754,363.1,301.3633,362.74199999999996,301.3633L360.293,301.3633C359.824,301.3633,359.60699999999997,301.1641,359.60699999999997,300.8066L359.60699999999997,298.2285ZM355.324,287.57617L354.31600000000003,288.20312C354.75,288.81836,355.15999999999997,289.42773,355.541,290.00195C353.848,290.21875,352.248,290.36523,350.73,290.45312C351.744,289.5332,352.64099999999996,288.27344,353.467,286.67383L352.248,286.29297C351.527,287.73438,350.59000000000003,289.0293,349.471,290.18359C349.312,290.33008,349.113,290.45312,348.879,290.52344L349.236,291.60742C351.902,291.46094,354.20500000000004,291.24414,356.13300000000004,290.93945C356.36699999999996,291.33789,356.584,291.73047,356.783,292.1289L357.844,291.37305C357.252,290.29492,356.402,289.0293,355.324,287.57617ZM381.06399999999996,293.9102L375.14099999999996,294.6309L375.14099999999996,293.1367C377.373,292.9199,379.318,292.5625,380.994,292.0938L380.39599999999996,291.06836C377.139,291.91211,373.03700000000003,292.3457,368.10400000000004,292.3457L368.47900000000004,293.4414C370.389,293.4414,372.16999999999996,293.3711,373.828,293.2422L373.828,294.7949L367.93899999999996,295.5098L368.10400000000004,296.6816L373.828,295.9785L373.828,297.707L367.348,298.5742L367.547,299.7402L373.828,298.8965L373.828,300.5371C373.828,301.7969,374.41999999999996,302.4238,375.60900000000004,302.4238L380.74199999999996,302.4238C381.48,302.4238,382.02,302.2832,382.35900000000004,301.9902C382.74,301.6855,382.99199999999996,300.7715,383.13300000000004,299.2539L381.89099999999996,298.8613C381.82,299.9746,381.656,300.6602,381.422,300.8945C381.246,301.0762,380.93600000000004,301.1816,380.525,301.1816L376.025,301.1816C375.428,301.1816,375.14099999999996,300.877,375.14099999999996,300.2676L375.14099999999996,298.7148L382.488,297.7246L382.289,296.5586L375.14099999999996,297.5312L375.14099999999996,295.8203L381.246,295.082L381.06399999999996,293.9102ZM369.49199999999996,289.07031L370.78700000000003,289.07031C371.291,289.86133,371.74199999999996,290.6875,372.1,291.53125L373.307,291.08594C373.02,290.4707,372.639,289.78516,372.152,289.07031L374.889,289.07031L374.889,287.91602L370.049,287.91602C370.225,287.46484,370.406,286.97852,370.57,286.47461L369.328,286.20508C368.842,287.7168,368.068,289.12305,367.025,290.38281L368.156,291.08594C368.65999999999997,290.4707,369.094,289.78516,369.49199999999996,289.07031ZM376.96299999999997,288.99414L378.416,288.99414C378.85,289.5918,379.21299999999997,290.20117,379.53499999999997,290.83398L380.68399999999997,290.40039C380.45500000000004,289.9668,380.145,289.49805,379.78700000000003,288.99414L382.828,288.99414L382.828,287.8457L377.443,287.8457C377.60699999999997,287.39453,377.77099999999996,286.9082,377.93,286.4043L376.66999999999996,286.13477C376.26,287.68164,375.592,289.08789,374.654,290.38281L375.756,291.06836C376.18399999999997,290.43555,376.6,289.75,376.96299999999997,288.99414ZM401.385,297.8008L400.10699999999997,297.3672C400.02,298.8086,399.89099999999996,299.7637,399.71500000000003,300.2441C399.51599999999996,300.7305,399.06399999999996,300.9824,398.361,300.9824L394.43600000000004,300.9824C393.826,300.9648,393.52099999999996,300.6426,393.52099999999996,300.0332L393.52099999999996,293.875L399.908,293.875L399.908,287.17773L391.395,287.17773L391.395,288.4375L398.666,288.4375L398.666,292.6328L392.262,292.6328L392.262,300.4961C392.262,301.6504,392.818,302.2246,393.932,302.2246L398.596,302.2246C399.60400000000004,302.2246,400.289,301.9375,400.629,301.3984C400.975,300.8418,401.227,299.6348,401.385,297.8008ZM386.91200000000003,286.47461L386.01599999999996,287.35938C387.31100000000004,288.33203,388.35400000000004,289.26367,389.10900000000004,290.14844L389.994,289.24609C389.16200000000003,288.31445,388.137,287.39453,386.91200000000003,286.47461ZM384.80899999999997,291.80664L384.80899999999997,293.0488L387.451,293.0488L387.451,300.2266C387.451,300.5195,387.328,300.7715,387.076,300.9824L387.58000000000004,302.1543C388.875,301.3281,390.11699999999996,300.4082,391.27099999999996,299.3652L390.943,297.9941C390.152,298.7148,389.39599999999996,299.3652,388.693,299.9043L388.693,291.80664L384.80899999999997,291.80664ZM406.805,291.33789L406.805,293.9805L404.59000000000003,293.9805C405.076,292.8496,405.527,291.53125,405.95500000000004,290.06055L410.654,290.06055L410.654,288.80078L406.301,288.80078C406.477,288.08008,406.64099999999996,287.30664,406.822,286.49219L405.58000000000004,286.29297C405.398,287.16016,405.199,288.00391,405.023,288.80078L402.98400000000004,288.80078L402.98400000000004,290.06055L404.678,290.06055C404.227,291.64258,403.746,292.9551,403.236,293.998L403.512,295.1523L406.805,295.1523L406.805,297.8184C405.615,298.0176,404.32,298.1934,402.949,298.3574L403.113,299.6172C404.39099999999996,299.4531,405.615,299.2773,406.805,299.0781L406.805,302.8047L408.082,302.8047L408.082,298.8438C408.961,298.6621,409.81100000000004,298.4805,410.619,298.2695L410.619,297.0273C409.828,297.2207,408.98400000000004,297.4023,408.082,297.584L408.082,295.1523L410.35,295.1523L410.35,293.9805L408.082,293.9805L408.082,291.33789L406.805,291.33789ZM412.418,286.15234C412.096,289.10547,411.35699999999997,291.4082,410.244,293.0664L411.305,293.8223C411.949,292.9199,412.494,291.74805,412.922,290.33008L417.48,290.33008C417.152,291.76562,416.74199999999996,293.0488,416.256,294.1797L417.551,294.543C418.09000000000003,293.0254,418.506,291.47852,418.828,289.91406L418.828,289.08789L413.23199999999997,289.08789C413.408,288.25586,413.572,287.3418,413.695,286.35156L412.418,286.15234ZM413.91200000000003,291.53125C413.895,293.875,413.65999999999997,295.8203,413.23199999999997,297.332C412.652,299.1309,411.504,300.625,409.75800000000004,301.8145L410.619,302.8574C412.635,301.4863,413.93,299.7227,414.51,297.5664C414.54499999999996,297.4375,414.562,297.3145,414.598,297.1855C415.48199999999997,299.4004,416.76,301.2754,418.43,302.8047L419.35,301.7383C417.299,300.0684,415.84000000000003,297.8008,414.97900000000004,294.9355C415.084,293.9102,415.154,292.7734,415.154,291.53125L413.91200000000003,291.53125ZM424.711,286.1875C423.85,288.99414,422.47900000000004,291.49609,420.574,293.6582L420.98400000000004,295.0469C421.66999999999996,294.3262,422.303,293.5703,422.877,292.7734L422.877,302.8223L424.154,302.8223L424.154,290.79883C424.875,289.51562,425.467,288.16797,425.93600000000004,286.74414L424.711,286.1875ZM427.74,287.37695C427.342,289.76758,426.60400000000004,291.80664,425.50800000000004,293.459L426.334,294.543C427.002,293.6055,427.55899999999997,292.5449,428.01,291.35547L431.068,291.35547L431.068,295.6914L425.777,295.6914L425.777,296.9336L431.068,296.9336L431.068,302.7285L432.363,302.7285L432.363,296.9336L437.168,296.9336L437.168,295.6914L432.363,295.6914L432.363,291.35547L436.506,291.35547L436.506,290.0957L432.363,290.0957L432.363,286.35156L431.068,286.35156L431.068,290.0957L428.41999999999996,290.0957C428.672,289.30469,428.871,288.4375,429.01800000000003,287.53516L427.74,287.37695Z" fill="#9E9E9E" fill-opacity="1"/></g><g clip-path="url(#master_svg1_5_198)"><g><path d="M330.4998779296875,173L287.4998779296875,173L287.4998779296875,171L330.4998779296875,171L330.4998779296875,164L373.4998779296875,172L330.4998779296875,180L330.4998779296875,173Z" fill="#D8D8D8" fill-opacity="1"/></g></g></g></svg>