<?xml version="1.0" standalone="no"?>
<!DOCTYPE svg PUBLIC "-//W3C//DTD SVG 1.1//EN" "http://www.w3.org/Graphics/SVG/1.1/DTD/svg11.dtd">
<svg t="1677142634297" class="icon" viewBox="0 0 1024 1024" version="1.1" xmlns="http://www.w3.org/2000/svg" p-id="3697" xmlns:xlink="http://www.w3.org/1999/xlink" width="256" height="256">
  <path d="M298.666667 725.333333H170.666667C101.546667 725.333333 40.96 671.573333 32.426667 603.306667l-21.333334-127.573334C6.4 439.466667 16.64 405.333333 38.826667 380.586667 61.013333 355.84 93.44 341.333333 128 341.333333h256c35.413333 0 67.413333 14.933333 87.893333 40.96 4.693333 6.4 8.96 13.226667 12.373334 20.906667 18.346667-3.84 37.12-3.84 55.04 0 3.413333-7.68 7.68-14.506667 12.8-20.906667C572.16 356.266667 604.16 341.333333 640 341.333333h256c34.56 0 66.986667 14.506667 89.173333 39.253334 21.76 24.746667 32 58.88 27.733334 93.44l-21.76 130.986666C983.04 671.573333 922.026667 725.333333 853.333333 725.333333h-128c-66.56 0-131.413333-50.773333-147.626666-115.2l-38.4-115.626666c-16.213333-11.946667-38.826667-11.946667-55.04 0l-39.253334 118.613333C429.653333 674.986667 365.226667 725.333333 298.666667 725.333333z" fill="currentColor" p-id="3698"></path>
</svg>
